<mxfile host="app.diagrams.net" agent="Mozilla/5.0 (Windows NT 10.0; Win64; x64) AppleWebKit/537.36 (KHTML, like Gecko) Chrome/141.0.0.0 Safari/537.36" version="28.2.7">
  <diagram name="Сторінка-1" id="j8vxDPBq2BHgsnHh949C">
    <mxGraphModel dx="2067" dy="646" grid="1" gridSize="1" guides="1" tooltips="1" connect="1" arrows="1" fold="1" page="1" pageScale="1" pageWidth="827" pageHeight="1169" math="0" shadow="0">
      <root>
        <mxCell id="0" />
        <mxCell id="1" parent="0" />
        <mxCell id="fA1U0WhDbmL-caPnjO-2-62" value="USERS" style="swimlane;childLayout=stackLayout;horizontal=1;startSize=50;horizontalStack=0;rounded=1;fontSize=14;fontStyle=0;strokeWidth=2;resizeParent=0;resizeLast=1;shadow=0;dashed=0;align=center;arcSize=4;whiteSpace=wrap;html=1;fillColor=#d5e8d4;strokeColor=#82b366;" parent="1" vertex="1">
          <mxGeometry x="545" y="379" width="156" height="245" as="geometry" />
        </mxCell>
        <mxCell id="fA1U0WhDbmL-caPnjO-2-63" value="1. user_id (PK)&lt;div&gt;2. email&lt;/div&gt;&lt;div&gt;3. password_hash&lt;/div&gt;&lt;div&gt;4. first_name&lt;/div&gt;&lt;div&gt;5. last_name&lt;/div&gt;&lt;div&gt;6. date_of_birth&lt;/div&gt;&lt;div&gt;7. gender&lt;/div&gt;&lt;div&gt;8. height&lt;/div&gt;&lt;div&gt;9. current_weight&lt;/div&gt;&lt;div&gt;10. target_weight&lt;/div&gt;&lt;div&gt;11. activity_level&lt;/div&gt;&lt;div&gt;12. role&lt;/div&gt;&lt;div&gt;13. created at&lt;/div&gt;" style="align=left;strokeColor=none;fillColor=none;spacingLeft=4;spacingRight=4;fontSize=12;verticalAlign=top;resizable=0;rotatable=0;part=1;html=1;whiteSpace=wrap;" parent="fA1U0WhDbmL-caPnjO-2-62" vertex="1">
          <mxGeometry y="50" width="156" height="195" as="geometry" />
        </mxCell>
        <mxCell id="fA1U0WhDbmL-caPnjO-2-64" value="USER GOALS" style="swimlane;childLayout=stackLayout;horizontal=1;startSize=50;horizontalStack=0;rounded=1;fontSize=14;fontStyle=0;strokeWidth=2;resizeParent=0;resizeLast=1;shadow=0;dashed=0;align=center;arcSize=4;whiteSpace=wrap;html=1;fillColor=#d5e8d4;strokeColor=#82b366;" parent="1" vertex="1">
          <mxGeometry x="34" y="394" width="156" height="191" as="geometry" />
        </mxCell>
        <mxCell id="fA1U0WhDbmL-caPnjO-2-65" value="1. goal_id (PK)&lt;div&gt;2. user_id(FK)&lt;/div&gt;&lt;div&gt;3. daily_calories&lt;/div&gt;&lt;div&gt;4. goal_type&lt;/div&gt;&lt;div&gt;5. protein_grams&lt;/div&gt;&lt;div&gt;6. fat_grams&lt;/div&gt;&lt;div&gt;7. carbs_grams&lt;/div&gt;&lt;div&gt;8. is_active&lt;/div&gt;&lt;div&gt;9. created_at&lt;/div&gt;" style="align=left;strokeColor=none;fillColor=none;spacingLeft=4;spacingRight=4;fontSize=12;verticalAlign=top;resizable=0;rotatable=0;part=1;html=1;whiteSpace=wrap;" parent="fA1U0WhDbmL-caPnjO-2-64" vertex="1">
          <mxGeometry y="50" width="156" height="141" as="geometry" />
        </mxCell>
        <mxCell id="fA1U0WhDbmL-caPnjO-2-68" value="USER SETTINGS" style="swimlane;childLayout=stackLayout;horizontal=1;startSize=50;horizontalStack=0;rounded=1;fontSize=14;fontStyle=0;strokeWidth=2;resizeParent=0;resizeLast=1;shadow=0;dashed=0;align=center;arcSize=4;whiteSpace=wrap;html=1;fillColor=#d5e8d4;strokeColor=#82b366;" parent="1" vertex="1">
          <mxGeometry x="137" y="174" width="156" height="149" as="geometry" />
        </mxCell>
        <mxCell id="fA1U0WhDbmL-caPnjO-2-69" value="1. settings_id (PK)&lt;div&gt;2. user_id(FK)&lt;/div&gt;&lt;div&gt;3. language&lt;/div&gt;&lt;div&gt;4. theme&lt;/div&gt;&lt;div&gt;5. reminder_food_enabled&lt;/div&gt;&lt;div&gt;6. weekly_reports_enabled&lt;/div&gt;" style="align=left;strokeColor=none;fillColor=none;spacingLeft=4;spacingRight=4;fontSize=12;verticalAlign=top;resizable=0;rotatable=0;part=1;html=1;whiteSpace=wrap;" parent="fA1U0WhDbmL-caPnjO-2-68" vertex="1">
          <mxGeometry y="50" width="156" height="99" as="geometry" />
        </mxCell>
        <mxCell id="fA1U0WhDbmL-caPnjO-2-70" value="МАЄ" style="shape=rhombus;perimeter=rhombusPerimeter;whiteSpace=wrap;html=1;align=center;fillColor=#dae8fc;strokeColor=#6c8ebf;" parent="1" vertex="1">
          <mxGeometry x="310" y="486" width="120" height="60" as="geometry" />
        </mxCell>
        <mxCell id="fA1U0WhDbmL-caPnjO-2-73" value="" style="endArrow=classic;html=1;rounded=0;exitX=-0.014;exitY=0.442;exitDx=0;exitDy=0;exitPerimeter=0;entryX=1;entryY=0.5;entryDx=0;entryDy=0;" parent="1" source="fA1U0WhDbmL-caPnjO-2-63" target="fA1U0WhDbmL-caPnjO-2-70" edge="1">
          <mxGeometry width="50" height="50" relative="1" as="geometry">
            <mxPoint x="330" y="774" as="sourcePoint" />
            <mxPoint x="380" y="724" as="targetPoint" />
          </mxGeometry>
        </mxCell>
        <mxCell id="fA1U0WhDbmL-caPnjO-2-74" value="" style="endArrow=classic;html=1;rounded=0;exitX=0;exitY=0.5;exitDx=0;exitDy=0;entryX=1;entryY=0.5;entryDx=0;entryDy=0;" parent="1" source="fA1U0WhDbmL-caPnjO-2-70" target="fA1U0WhDbmL-caPnjO-2-65" edge="1">
          <mxGeometry width="50" height="50" relative="1" as="geometry">
            <mxPoint x="261" y="660" as="sourcePoint" />
            <mxPoint x="165" y="509" as="targetPoint" />
          </mxGeometry>
        </mxCell>
        <mxCell id="fA1U0WhDbmL-caPnjO-2-75" value="НАЛАШТОВУЄ" style="shape=rhombus;perimeter=rhombusPerimeter;whiteSpace=wrap;html=1;align=center;fillColor=#dae8fc;strokeColor=#6c8ebf;" parent="1" vertex="1">
          <mxGeometry x="370" y="325" width="120" height="60" as="geometry" />
        </mxCell>
        <mxCell id="fA1U0WhDbmL-caPnjO-2-76" value="" style="endArrow=classic;html=1;rounded=0;entryX=1;entryY=0.5;entryDx=0;entryDy=0;exitX=0;exitY=0;exitDx=0;exitDy=0;" parent="1" source="fA1U0WhDbmL-caPnjO-2-62" target="fA1U0WhDbmL-caPnjO-2-75" edge="1">
          <mxGeometry width="50" height="50" relative="1" as="geometry">
            <mxPoint x="544" y="374" as="sourcePoint" />
            <mxPoint x="590" y="328" as="targetPoint" />
          </mxGeometry>
        </mxCell>
        <mxCell id="fA1U0WhDbmL-caPnjO-2-77" value="" style="endArrow=classic;html=1;rounded=0;entryX=0.987;entryY=0.939;entryDx=0;entryDy=0;exitX=0;exitY=0.5;exitDx=0;exitDy=0;entryPerimeter=0;" parent="1" source="fA1U0WhDbmL-caPnjO-2-75" target="fA1U0WhDbmL-caPnjO-2-69" edge="1">
          <mxGeometry width="50" height="50" relative="1" as="geometry">
            <mxPoint x="454" y="298" as="sourcePoint" />
            <mxPoint x="419" y="248" as="targetPoint" />
          </mxGeometry>
        </mxCell>
        <mxCell id="fA1U0WhDbmL-caPnjO-2-79" value="&lt;font style=&quot;font-size: 16px; color: rgb(255, 0, 128);&quot;&gt;1&lt;/font&gt;" style="text;html=1;align=center;verticalAlign=middle;resizable=0;points=[];autosize=1;strokeColor=none;fillColor=none;" parent="1" vertex="1">
          <mxGeometry x="306" y="291" width="28" height="32" as="geometry" />
        </mxCell>
        <mxCell id="fA1U0WhDbmL-caPnjO-2-80" value="&lt;font style=&quot;font-size: 16px; color: rgb(255, 0, 128);&quot;&gt;1&lt;/font&gt;" style="text;html=1;align=center;verticalAlign=middle;resizable=0;points=[];autosize=1;strokeColor=none;fillColor=none;" parent="1" vertex="1">
          <mxGeometry x="528" y="345" width="28" height="32" as="geometry" />
        </mxCell>
        <mxCell id="fA1U0WhDbmL-caPnjO-2-81" value="&lt;font style=&quot;font-size: 16px; color: rgb(255, 0, 128);&quot;&gt;1&lt;/font&gt;" style="text;html=1;align=center;verticalAlign=middle;resizable=0;points=[];autosize=1;strokeColor=none;fillColor=none;" parent="1" vertex="1">
          <mxGeometry x="510" y="484" width="28" height="32" as="geometry" />
        </mxCell>
        <mxCell id="fA1U0WhDbmL-caPnjO-2-82" value="&lt;font style=&quot;font-size: 16px; color: rgb(255, 0, 128);&quot;&gt;1&lt;/font&gt;" style="text;html=1;align=center;verticalAlign=middle;resizable=0;points=[];autosize=1;strokeColor=none;fillColor=none;" parent="1" vertex="1">
          <mxGeometry x="198" y="488" width="28" height="32" as="geometry" />
        </mxCell>
        <mxCell id="fA1U0WhDbmL-caPnjO-2-83" value="PRODUCTS" style="swimlane;childLayout=stackLayout;horizontal=1;startSize=50;horizontalStack=0;rounded=1;fontSize=14;fontStyle=0;strokeWidth=2;resizeParent=0;resizeLast=1;shadow=0;dashed=0;align=center;arcSize=4;whiteSpace=wrap;html=1;fillColor=#d5e8d4;strokeColor=#82b366;" parent="1" vertex="1">
          <mxGeometry x="177" y="931" width="156" height="207" as="geometry" />
        </mxCell>
        <mxCell id="fA1U0WhDbmL-caPnjO-2-84" value="1. products_id (PK)&lt;div&gt;2. name&lt;/div&gt;&lt;div&gt;3. category&lt;/div&gt;&lt;div&gt;4. calories_per_100g&lt;/div&gt;&lt;div&gt;5. protein&lt;span style=&quot;background-color: transparent; color: light-dark(rgb(0, 0, 0), rgb(255, 255, 255));&quot;&gt;_per_100g&lt;/span&gt;&lt;/div&gt;&lt;div&gt;6. fat&lt;span style=&quot;background-color: transparent; color: light-dark(rgb(0, 0, 0), rgb(255, 255, 255));&quot;&gt;_per_100g&lt;/span&gt;&lt;/div&gt;&lt;div&gt;7. carbs&lt;span style=&quot;background-color: transparent; color: light-dark(rgb(0, 0, 0), rgb(255, 255, 255));&quot;&gt;_per_100g&lt;/span&gt;&lt;/div&gt;&lt;div&gt;8. is_global&lt;/div&gt;&lt;div&gt;9. created_by_user_id&lt;/div&gt;&lt;div&gt;10. created at&lt;/div&gt;" style="align=left;strokeColor=none;fillColor=none;spacingLeft=4;spacingRight=4;fontSize=12;verticalAlign=top;resizable=0;rotatable=0;part=1;html=1;whiteSpace=wrap;" parent="fA1U0WhDbmL-caPnjO-2-83" vertex="1">
          <mxGeometry y="50" width="156" height="157" as="geometry" />
        </mxCell>
        <mxCell id="fA1U0WhDbmL-caPnjO-2-92" style="edgeStyle=orthogonalEdgeStyle;rounded=0;orthogonalLoop=1;jettySize=auto;html=1;" parent="fA1U0WhDbmL-caPnjO-2-83" source="fA1U0WhDbmL-caPnjO-2-84" target="fA1U0WhDbmL-caPnjO-2-84" edge="1">
          <mxGeometry relative="1" as="geometry" />
        </mxCell>
        <mxCell id="fA1U0WhDbmL-caPnjO-2-93" style="edgeStyle=orthogonalEdgeStyle;rounded=0;orthogonalLoop=1;jettySize=auto;html=1;" parent="fA1U0WhDbmL-caPnjO-2-83" source="fA1U0WhDbmL-caPnjO-2-84" target="fA1U0WhDbmL-caPnjO-2-84" edge="1">
          <mxGeometry relative="1" as="geometry" />
        </mxCell>
        <mxCell id="fA1U0WhDbmL-caPnjO-2-94" style="edgeStyle=orthogonalEdgeStyle;rounded=0;orthogonalLoop=1;jettySize=auto;html=1;" parent="fA1U0WhDbmL-caPnjO-2-83" source="fA1U0WhDbmL-caPnjO-2-84" target="fA1U0WhDbmL-caPnjO-2-84" edge="1">
          <mxGeometry relative="1" as="geometry" />
        </mxCell>
        <mxCell id="fA1U0WhDbmL-caPnjO-2-85" value="" style="endArrow=classic;html=1;rounded=0;exitX=0;exitY=1;exitDx=0;exitDy=0;entryX=0.5;entryY=0;entryDx=0;entryDy=0;" parent="1" source="fA1U0WhDbmL-caPnjO-2-63" target="fA1U0WhDbmL-caPnjO-2-86" edge="1">
          <mxGeometry width="50" height="50" relative="1" as="geometry">
            <mxPoint x="572" y="690" as="sourcePoint" />
            <mxPoint x="522" y="891" as="targetPoint" />
          </mxGeometry>
        </mxCell>
        <mxCell id="fA1U0WhDbmL-caPnjO-2-86" value="СТВОРЮЄ" style="shape=rhombus;perimeter=rhombusPerimeter;whiteSpace=wrap;html=1;align=center;fillColor=#dae8fc;strokeColor=#6c8ebf;" parent="1" vertex="1">
          <mxGeometry x="422" y="897" width="120" height="60" as="geometry" />
        </mxCell>
        <mxCell id="fA1U0WhDbmL-caPnjO-2-87" value="" style="endArrow=classic;html=1;rounded=0;exitX=0;exitY=1;exitDx=0;exitDy=0;entryX=1;entryY=0.25;entryDx=0;entryDy=0;" parent="1" source="fA1U0WhDbmL-caPnjO-2-86" target="fA1U0WhDbmL-caPnjO-2-84" edge="1">
          <mxGeometry width="50" height="50" relative="1" as="geometry">
            <mxPoint x="383" y="731" as="sourcePoint" />
            <mxPoint x="295" y="864" as="targetPoint" />
          </mxGeometry>
        </mxCell>
        <mxCell id="fA1U0WhDbmL-caPnjO-2-88" value="&lt;font style=&quot;font-size: 16px; color: rgb(255, 0, 128);&quot;&gt;1&lt;/font&gt;" style="text;html=1;align=center;verticalAlign=middle;resizable=0;points=[];autosize=1;strokeColor=none;fillColor=none;" parent="1" vertex="1">
          <mxGeometry x="512" y="624" width="28" height="32" as="geometry" />
        </mxCell>
        <mxCell id="fA1U0WhDbmL-caPnjO-2-89" value="&lt;font color=&quot;#ff0080&quot;&gt;&lt;span style=&quot;font-size: 16px;&quot;&gt;N&lt;/span&gt;&lt;/font&gt;" style="text;html=1;align=center;verticalAlign=middle;resizable=0;points=[];autosize=1;strokeColor=none;fillColor=none;" parent="1" vertex="1">
          <mxGeometry x="339" y="965" width="31" height="32" as="geometry" />
        </mxCell>
        <mxCell id="fA1U0WhDbmL-caPnjO-2-90" value="FOOD DIARY" style="swimlane;childLayout=stackLayout;horizontal=1;startSize=47;horizontalStack=0;rounded=1;fontSize=14;fontStyle=0;strokeWidth=2;resizeParent=0;resizeLast=1;shadow=0;dashed=0;align=center;arcSize=4;whiteSpace=wrap;html=1;fillColor=#d5e8d4;strokeColor=#82b366;" parent="1" vertex="1">
          <mxGeometry x="-76" y="694" width="156" height="210" as="geometry" />
        </mxCell>
        <mxCell id="fA1U0WhDbmL-caPnjO-2-91" value="1. diary_entry_id (PK)&lt;div&gt;2. user_id(FK)&lt;/div&gt;&lt;div&gt;3. product_id(FK)&lt;/div&gt;&lt;div&gt;4. meal_type_id(FK)&lt;/div&gt;&lt;div&gt;5. date&lt;/div&gt;&lt;div&gt;6. time&lt;/div&gt;&lt;div&gt;7. weight_grams&lt;/div&gt;&lt;div&gt;8. calories&lt;/div&gt;&lt;div&gt;9. protein&lt;/div&gt;&lt;div&gt;10. created at&lt;/div&gt;" style="align=left;strokeColor=none;fillColor=none;spacingLeft=4;spacingRight=4;fontSize=12;verticalAlign=top;resizable=0;rotatable=0;part=1;html=1;whiteSpace=wrap;" parent="fA1U0WhDbmL-caPnjO-2-90" vertex="1">
          <mxGeometry y="47" width="156" height="163" as="geometry" />
        </mxCell>
        <mxCell id="fA1U0WhDbmL-caPnjO-2-95" value="ЗАПИСУЄ" style="shape=rhombus;perimeter=rhombusPerimeter;whiteSpace=wrap;html=1;align=center;fillColor=#dae8fc;strokeColor=#6c8ebf;" parent="1" vertex="1">
          <mxGeometry x="238" y="692" width="120" height="60" as="geometry" />
        </mxCell>
        <mxCell id="fA1U0WhDbmL-caPnjO-2-96" value="" style="endArrow=classic;html=1;rounded=0;exitX=-0.013;exitY=0.667;exitDx=0;exitDy=0;entryX=1;entryY=0;entryDx=0;entryDy=0;exitPerimeter=0;" parent="1" source="fA1U0WhDbmL-caPnjO-2-63" target="fA1U0WhDbmL-caPnjO-2-95" edge="1">
          <mxGeometry width="50" height="50" relative="1" as="geometry">
            <mxPoint x="540" y="560" as="sourcePoint" />
            <mxPoint x="477" y="833" as="targetPoint" />
          </mxGeometry>
        </mxCell>
        <mxCell id="fA1U0WhDbmL-caPnjO-2-97" value="&lt;font style=&quot;font-size: 16px; color: rgb(255, 0, 128);&quot;&gt;1&lt;/font&gt;" style="text;html=1;align=center;verticalAlign=middle;resizable=0;points=[];autosize=1;strokeColor=none;fillColor=none;" parent="1" vertex="1">
          <mxGeometry x="502" y="537" width="28" height="32" as="geometry" />
        </mxCell>
        <mxCell id="fA1U0WhDbmL-caPnjO-2-101" value="&lt;font color=&quot;#ff0080&quot;&gt;&lt;span style=&quot;font-size: 16px;&quot;&gt;N&lt;/span&gt;&lt;/font&gt;" style="text;html=1;align=center;verticalAlign=middle;resizable=0;points=[];autosize=1;strokeColor=none;fillColor=none;" parent="1" vertex="1">
          <mxGeometry x="80" y="774" width="31" height="32" as="geometry" />
        </mxCell>
        <mxCell id="fA1U0WhDbmL-caPnjO-2-102" value="" style="endArrow=classic;html=1;rounded=0;exitX=0;exitY=1;exitDx=0;exitDy=0;entryX=1.006;entryY=0.448;entryDx=0;entryDy=0;entryPerimeter=0;" parent="1" source="fA1U0WhDbmL-caPnjO-2-95" target="fA1U0WhDbmL-caPnjO-2-91" edge="1">
          <mxGeometry width="50" height="50" relative="1" as="geometry">
            <mxPoint x="265" y="738" as="sourcePoint" />
            <mxPoint x="50" y="886" as="targetPoint" />
          </mxGeometry>
        </mxCell>
        <mxCell id="fA1U0WhDbmL-caPnjO-2-103" value="МІСТИТЬ" style="shape=rhombus;perimeter=rhombusPerimeter;whiteSpace=wrap;html=1;align=center;fillColor=#dae8fc;strokeColor=#6c8ebf;" parent="1" vertex="1">
          <mxGeometry x="-7" y="958" width="120" height="60" as="geometry" />
        </mxCell>
        <mxCell id="fA1U0WhDbmL-caPnjO-2-104" value="" style="endArrow=classic;html=1;rounded=0;exitX=0;exitY=0.5;exitDx=0;exitDy=0;" parent="1" source="fA1U0WhDbmL-caPnjO-2-84" target="fA1U0WhDbmL-caPnjO-2-103" edge="1">
          <mxGeometry width="50" height="50" relative="1" as="geometry">
            <mxPoint x="150" y="1009" as="sourcePoint" />
            <mxPoint x="31" y="1087" as="targetPoint" />
          </mxGeometry>
        </mxCell>
        <mxCell id="fA1U0WhDbmL-caPnjO-2-105" value="" style="endArrow=classic;html=1;rounded=0;entryX=0.5;entryY=1;entryDx=0;entryDy=0;" parent="1" source="fA1U0WhDbmL-caPnjO-2-103" target="fA1U0WhDbmL-caPnjO-2-91" edge="1">
          <mxGeometry width="50" height="50" relative="1" as="geometry">
            <mxPoint x="11" y="975" as="sourcePoint" />
            <mxPoint x="-85" y="919" as="targetPoint" />
          </mxGeometry>
        </mxCell>
        <mxCell id="fA1U0WhDbmL-caPnjO-2-106" value="&lt;font style=&quot;font-size: 16px; color: rgb(255, 0, 128);&quot;&gt;1&lt;/font&gt;" style="text;html=1;align=center;verticalAlign=middle;resizable=0;points=[];autosize=1;strokeColor=none;fillColor=none;" parent="1" vertex="1">
          <mxGeometry x="149" y="1020" width="28" height="32" as="geometry" />
        </mxCell>
        <mxCell id="fA1U0WhDbmL-caPnjO-2-107" value="&lt;font color=&quot;#ff0080&quot;&gt;&lt;span style=&quot;font-size: 16px;&quot;&gt;N&lt;/span&gt;&lt;/font&gt;" style="text;html=1;align=center;verticalAlign=middle;resizable=0;points=[];autosize=1;strokeColor=none;fillColor=none;" parent="1" vertex="1">
          <mxGeometry x="21" y="909" width="31" height="32" as="geometry" />
        </mxCell>
        <mxCell id="fA1U0WhDbmL-caPnjO-2-108" value="MEAL TYPES" style="swimlane;childLayout=stackLayout;horizontal=1;startSize=50;horizontalStack=0;rounded=1;fontSize=14;fontStyle=0;strokeWidth=2;resizeParent=0;resizeLast=1;shadow=0;dashed=0;align=center;arcSize=4;whiteSpace=wrap;html=1;fillColor=#d5e8d4;strokeColor=#82b366;" parent="1" vertex="1">
          <mxGeometry x="-491" y="727" width="156" height="109" as="geometry" />
        </mxCell>
        <mxCell id="fA1U0WhDbmL-caPnjO-2-109" value="1. meal_type_id (PK)&lt;div&gt;2. name&lt;/div&gt;&lt;div&gt;3. display_order&lt;/div&gt;" style="align=left;strokeColor=none;fillColor=none;spacingLeft=4;spacingRight=4;fontSize=12;verticalAlign=top;resizable=0;rotatable=0;part=1;html=1;whiteSpace=wrap;" parent="fA1U0WhDbmL-caPnjO-2-108" vertex="1">
          <mxGeometry y="50" width="156" height="59" as="geometry" />
        </mxCell>
        <mxCell id="fA1U0WhDbmL-caPnjO-2-110" value="&lt;font style=&quot;font-size: 10px;&quot;&gt;КАТЕГОРИЗУЄ&lt;/font&gt;" style="shape=rhombus;perimeter=rhombusPerimeter;whiteSpace=wrap;html=1;align=center;fillColor=#dae8fc;strokeColor=#6c8ebf;" parent="1" vertex="1">
          <mxGeometry x="-252" y="771" width="120" height="60" as="geometry" />
        </mxCell>
        <mxCell id="fA1U0WhDbmL-caPnjO-2-111" value="" style="endArrow=classic;html=1;rounded=0;exitX=0.988;exitY=0.418;exitDx=0;exitDy=0;entryX=0;entryY=0.5;entryDx=0;entryDy=0;exitPerimeter=0;" parent="1" source="fA1U0WhDbmL-caPnjO-2-109" target="fA1U0WhDbmL-caPnjO-2-110" edge="1">
          <mxGeometry width="50" height="50" relative="1" as="geometry">
            <mxPoint x="-176" y="833" as="sourcePoint" />
            <mxPoint x="-363" y="910" as="targetPoint" />
          </mxGeometry>
        </mxCell>
        <mxCell id="fA1U0WhDbmL-caPnjO-2-112" value="" style="endArrow=classic;html=1;rounded=0;exitX=1;exitY=0.5;exitDx=0;exitDy=0;" parent="1" source="fA1U0WhDbmL-caPnjO-2-110" edge="1">
          <mxGeometry width="50" height="50" relative="1" as="geometry">
            <mxPoint x="-155" y="844" as="sourcePoint" />
            <mxPoint x="-77" y="799" as="targetPoint" />
          </mxGeometry>
        </mxCell>
        <mxCell id="fA1U0WhDbmL-caPnjO-2-113" value="&lt;font color=&quot;#ff0080&quot;&gt;&lt;span style=&quot;font-size: 16px;&quot;&gt;N&lt;/span&gt;&lt;/font&gt;" style="text;html=1;align=center;verticalAlign=middle;resizable=0;points=[];autosize=1;strokeColor=none;fillColor=none;" parent="1" vertex="1">
          <mxGeometry x="-113" y="774" width="31" height="32" as="geometry" />
        </mxCell>
        <mxCell id="fA1U0WhDbmL-caPnjO-2-114" value="&lt;font style=&quot;font-size: 16px; color: rgb(255, 0, 128);&quot;&gt;1&lt;/font&gt;" style="text;html=1;align=center;verticalAlign=middle;resizable=0;points=[];autosize=1;strokeColor=none;fillColor=none;" parent="1" vertex="1">
          <mxGeometry x="-332" y="774" width="28" height="32" as="geometry" />
        </mxCell>
        <mxCell id="fA1U0WhDbmL-caPnjO-2-115" value="WEIGHT HISTORY" style="swimlane;childLayout=stackLayout;horizontal=1;startSize=50;horizontalStack=0;rounded=1;fontSize=14;fontStyle=0;strokeWidth=2;resizeParent=0;resizeLast=1;shadow=0;dashed=0;align=center;arcSize=4;whiteSpace=wrap;html=1;fillColor=#d5e8d4;strokeColor=#82b366;" parent="1" vertex="1">
          <mxGeometry x="914" y="112" width="156" height="149" as="geometry" />
        </mxCell>
        <mxCell id="fA1U0WhDbmL-caPnjO-2-116" value="1. weight_entry_id (PK)&lt;div&gt;2. user_id(FK)&lt;/div&gt;&lt;div&gt;3. date&lt;/div&gt;&lt;div&gt;4. weitght&lt;/div&gt;&lt;div&gt;5. bmi&lt;/div&gt;&lt;div&gt;6. created_at&lt;/div&gt;" style="align=left;strokeColor=none;fillColor=none;spacingLeft=4;spacingRight=4;fontSize=12;verticalAlign=top;resizable=0;rotatable=0;part=1;html=1;whiteSpace=wrap;" parent="fA1U0WhDbmL-caPnjO-2-115" vertex="1">
          <mxGeometry y="50" width="156" height="99" as="geometry" />
        </mxCell>
        <mxCell id="fA1U0WhDbmL-caPnjO-2-117" value="ФІКСУЄ" style="shape=rhombus;perimeter=rhombusPerimeter;whiteSpace=wrap;html=1;align=center;fillColor=#dae8fc;strokeColor=#6c8ebf;" parent="1" vertex="1">
          <mxGeometry x="752" y="288" width="120" height="60" as="geometry" />
        </mxCell>
        <mxCell id="fA1U0WhDbmL-caPnjO-2-118" value="" style="endArrow=classic;html=1;rounded=0;entryX=0;entryY=1;entryDx=0;entryDy=0;exitX=1;exitY=0;exitDx=0;exitDy=0;" parent="1" source="fA1U0WhDbmL-caPnjO-2-62" target="fA1U0WhDbmL-caPnjO-2-117" edge="1">
          <mxGeometry width="50" height="50" relative="1" as="geometry">
            <mxPoint x="795" y="397" as="sourcePoint" />
            <mxPoint x="740" y="373" as="targetPoint" />
          </mxGeometry>
        </mxCell>
        <mxCell id="fA1U0WhDbmL-caPnjO-2-120" value="" style="endArrow=classic;html=1;rounded=0;entryX=0;entryY=1;entryDx=0;entryDy=0;exitX=1;exitY=0;exitDx=0;exitDy=0;" parent="1" source="fA1U0WhDbmL-caPnjO-2-117" target="fA1U0WhDbmL-caPnjO-2-116" edge="1">
          <mxGeometry width="50" height="50" relative="1" as="geometry">
            <mxPoint x="846" y="298" as="sourcePoint" />
            <mxPoint x="927" y="252" as="targetPoint" />
          </mxGeometry>
        </mxCell>
        <mxCell id="fA1U0WhDbmL-caPnjO-2-121" value="&lt;font style=&quot;font-size: 16px; color: rgb(255, 0, 128);&quot;&gt;1&lt;/font&gt;" style="text;html=1;align=center;verticalAlign=middle;resizable=0;points=[];autosize=1;strokeColor=none;fillColor=none;" parent="1" vertex="1">
          <mxGeometry x="696" y="341" width="28" height="32" as="geometry" />
        </mxCell>
        <mxCell id="fA1U0WhDbmL-caPnjO-2-122" value="&lt;font color=&quot;#ff0080&quot;&gt;&lt;span style=&quot;font-size: 16px;&quot;&gt;N&lt;/span&gt;&lt;/font&gt;" style="text;html=1;align=center;verticalAlign=middle;resizable=0;points=[];autosize=1;strokeColor=none;fillColor=none;" parent="1" vertex="1">
          <mxGeometry x="873" y="238" width="31" height="32" as="geometry" />
        </mxCell>
        <mxCell id="fA1U0WhDbmL-caPnjO-2-123" value="DAILY SUMMARY" style="swimlane;childLayout=stackLayout;horizontal=1;startSize=50;horizontalStack=0;rounded=1;fontSize=14;fontStyle=0;strokeWidth=2;resizeParent=0;resizeLast=1;shadow=0;dashed=0;align=center;arcSize=4;whiteSpace=wrap;html=1;fillColor=#d5e8d4;strokeColor=#82b366;" parent="1" vertex="1">
          <mxGeometry x="1036" y="389" width="156" height="191" as="geometry" />
        </mxCell>
        <mxCell id="fA1U0WhDbmL-caPnjO-2-124" value="1. summary_id (PK)&lt;div&gt;2. user_id (FK)&lt;/div&gt;&lt;div&gt;3. date&lt;/div&gt;&lt;div&gt;4. total_calories&lt;/div&gt;&lt;div&gt;5. total_protein&lt;/div&gt;&lt;div&gt;6. goal_achieved&lt;/div&gt;&lt;div&gt;7. breakfast_calories&lt;/div&gt;&lt;div&gt;8. lunch_calories&lt;/div&gt;&lt;div&gt;9. dinner_calories&lt;/div&gt;" style="align=left;strokeColor=none;fillColor=none;spacingLeft=4;spacingRight=4;fontSize=12;verticalAlign=top;resizable=0;rotatable=0;part=1;html=1;whiteSpace=wrap;" parent="fA1U0WhDbmL-caPnjO-2-123" vertex="1">
          <mxGeometry y="50" width="156" height="141" as="geometry" />
        </mxCell>
        <mxCell id="fA1U0WhDbmL-caPnjO-2-125" value="&lt;font style=&quot;font-size: 11px;&quot;&gt;МАЄ ПІДСУМОК&lt;/font&gt;" style="shape=rhombus;perimeter=rhombusPerimeter;whiteSpace=wrap;html=1;align=center;fillColor=#dae8fc;strokeColor=#6c8ebf;" parent="1" vertex="1">
          <mxGeometry x="830" y="460" width="120" height="60" as="geometry" />
        </mxCell>
        <mxCell id="fA1U0WhDbmL-caPnjO-2-126" value="" style="endArrow=classic;html=1;rounded=0;entryX=0;entryY=0.5;entryDx=0;entryDy=0;exitX=1;exitY=0.5;exitDx=0;exitDy=0;" parent="1" source="fA1U0WhDbmL-caPnjO-2-63" target="fA1U0WhDbmL-caPnjO-2-125" edge="1">
          <mxGeometry width="50" height="50" relative="1" as="geometry">
            <mxPoint x="760" y="407" as="sourcePoint" />
            <mxPoint x="841" y="361" as="targetPoint" />
          </mxGeometry>
        </mxCell>
        <mxCell id="fA1U0WhDbmL-caPnjO-2-127" value="" style="endArrow=classic;html=1;rounded=0;entryX=-0.008;entryY=0.188;entryDx=0;entryDy=0;exitX=1;exitY=0;exitDx=0;exitDy=0;entryPerimeter=0;" parent="1" target="fA1U0WhDbmL-caPnjO-2-124" edge="1">
          <mxGeometry width="50" height="50" relative="1" as="geometry">
            <mxPoint x="949" y="490" as="sourcePoint" />
            <mxPoint x="1030" y="444" as="targetPoint" />
          </mxGeometry>
        </mxCell>
        <mxCell id="fA1U0WhDbmL-caPnjO-2-128" value="&lt;font style=&quot;font-size: 16px; color: rgb(255, 0, 128);&quot;&gt;1&lt;/font&gt;" style="text;html=1;align=center;verticalAlign=middle;resizable=0;points=[];autosize=1;strokeColor=none;fillColor=none;" parent="1" vertex="1">
          <mxGeometry x="708" y="487" width="28" height="32" as="geometry" />
        </mxCell>
        <mxCell id="fA1U0WhDbmL-caPnjO-2-129" value="&lt;font color=&quot;#ff0080&quot;&gt;&lt;span style=&quot;font-size: 16px;&quot;&gt;N&lt;/span&gt;&lt;/font&gt;" style="text;html=1;align=center;verticalAlign=middle;resizable=0;points=[];autosize=1;strokeColor=none;fillColor=none;" parent="1" vertex="1">
          <mxGeometry x="991" y="436" width="31" height="32" as="geometry" />
        </mxCell>
        <mxCell id="fA1U0WhDbmL-caPnjO-2-130" value="USER SESSIONS" style="swimlane;childLayout=stackLayout;horizontal=1;startSize=50;horizontalStack=0;rounded=1;fontSize=14;fontStyle=0;strokeWidth=2;resizeParent=0;resizeLast=1;shadow=0;dashed=0;align=center;arcSize=4;whiteSpace=wrap;html=1;fillColor=#d5e8d4;strokeColor=#82b366;" parent="1" vertex="1">
          <mxGeometry x="1011" y="617" width="156" height="178" as="geometry" />
        </mxCell>
        <mxCell id="fA1U0WhDbmL-caPnjO-2-131" value="1. session_id (PK)&lt;div&gt;2. user_id (FK)&lt;/div&gt;&lt;div&gt;3. acces_token_hash&lt;/div&gt;&lt;div&gt;4. refresh_token_hash&lt;/div&gt;&lt;div&gt;5. device_info&lt;/div&gt;&lt;div&gt;6. is_active&lt;/div&gt;&lt;div&gt;7. created_at&lt;/div&gt;&lt;div&gt;8. acces_token_expires_at&lt;/div&gt;" style="align=left;strokeColor=none;fillColor=none;spacingLeft=4;spacingRight=4;fontSize=12;verticalAlign=top;resizable=0;rotatable=0;part=1;html=1;whiteSpace=wrap;" parent="fA1U0WhDbmL-caPnjO-2-130" vertex="1">
          <mxGeometry y="50" width="156" height="128" as="geometry" />
        </mxCell>
        <mxCell id="fA1U0WhDbmL-caPnjO-2-132" value="&lt;span style=&quot;font-size: 11px;&quot;&gt;МАЄ СЕСІЮ&lt;/span&gt;" style="shape=rhombus;perimeter=rhombusPerimeter;whiteSpace=wrap;html=1;align=center;fillColor=#dae8fc;strokeColor=#6c8ebf;" parent="1" vertex="1">
          <mxGeometry x="789" y="647" width="120" height="60" as="geometry" />
        </mxCell>
        <mxCell id="fA1U0WhDbmL-caPnjO-2-133" value="" style="endArrow=classic;html=1;rounded=0;exitX=1;exitY=1;exitDx=0;exitDy=0;" parent="1" source="fA1U0WhDbmL-caPnjO-2-63" target="fA1U0WhDbmL-caPnjO-2-132" edge="1">
          <mxGeometry width="50" height="50" relative="1" as="geometry">
            <mxPoint x="696" y="655" as="sourcePoint" />
            <mxPoint x="825" y="618" as="targetPoint" />
          </mxGeometry>
        </mxCell>
        <mxCell id="fA1U0WhDbmL-caPnjO-2-134" value="" style="endArrow=classic;html=1;rounded=0;exitX=1;exitY=1;exitDx=0;exitDy=0;entryX=-0.02;entryY=0.349;entryDx=0;entryDy=0;entryPerimeter=0;" parent="1" source="fA1U0WhDbmL-caPnjO-2-132" target="fA1U0WhDbmL-caPnjO-2-131" edge="1">
          <mxGeometry width="50" height="50" relative="1" as="geometry">
            <mxPoint x="827" y="757" as="sourcePoint" />
            <mxPoint x="900" y="833" as="targetPoint" />
          </mxGeometry>
        </mxCell>
        <mxCell id="fA1U0WhDbmL-caPnjO-2-135" value="&lt;font style=&quot;font-size: 16px; color: rgb(255, 0, 128);&quot;&gt;1&lt;/font&gt;" style="text;html=1;align=center;verticalAlign=middle;resizable=0;points=[];autosize=1;strokeColor=none;fillColor=none;" parent="1" vertex="1">
          <mxGeometry x="710" y="610" width="28" height="32" as="geometry" />
        </mxCell>
        <mxCell id="fA1U0WhDbmL-caPnjO-2-139" value="&lt;font color=&quot;#ff0080&quot;&gt;&lt;span style=&quot;font-size: 16px;&quot;&gt;N&lt;/span&gt;&lt;/font&gt;" style="text;html=1;align=center;verticalAlign=middle;resizable=0;points=[];autosize=1;strokeColor=none;fillColor=none;" parent="1" vertex="1">
          <mxGeometry x="956" y="679" width="31" height="32" as="geometry" />
        </mxCell>
        <mxCell id="fA1U0WhDbmL-caPnjO-2-140" value="PASSWORD RESET&lt;div&gt;TOKENS&lt;/div&gt;" style="swimlane;childLayout=stackLayout;horizontal=1;startSize=50;horizontalStack=0;rounded=1;fontSize=14;fontStyle=0;strokeWidth=2;resizeParent=0;resizeLast=1;shadow=0;dashed=0;align=center;arcSize=4;whiteSpace=wrap;html=1;fillColor=#d5e8d4;strokeColor=#82b366;" parent="1" vertex="1">
          <mxGeometry x="834" y="804" width="156" height="162" as="geometry" />
        </mxCell>
        <mxCell id="fA1U0WhDbmL-caPnjO-2-141" value="1. token_id (PK)&lt;div&gt;2. user_id (FK)&lt;/div&gt;&lt;div&gt;3. token_code&lt;/div&gt;&lt;div&gt;4. is_used&lt;/div&gt;&lt;div&gt;5. atteempts&lt;/div&gt;&lt;div&gt;6. created_at&lt;/div&gt;&lt;div&gt;7. expires_at&lt;/div&gt;" style="align=left;strokeColor=none;fillColor=none;spacingLeft=4;spacingRight=4;fontSize=12;verticalAlign=top;resizable=0;rotatable=0;part=1;html=1;whiteSpace=wrap;" parent="fA1U0WhDbmL-caPnjO-2-140" vertex="1">
          <mxGeometry y="50" width="156" height="112" as="geometry" />
        </mxCell>
        <mxCell id="fA1U0WhDbmL-caPnjO-2-142" value="&lt;span style=&quot;font-size: 11px;&quot;&gt;ОТРИМУЄ&lt;/span&gt;" style="shape=rhombus;perimeter=rhombusPerimeter;whiteSpace=wrap;html=1;align=center;fillColor=#dae8fc;strokeColor=#6c8ebf;" parent="1" vertex="1">
          <mxGeometry x="661" y="705" width="120" height="60" as="geometry" />
        </mxCell>
        <mxCell id="fA1U0WhDbmL-caPnjO-2-143" value="" style="endArrow=classic;html=1;rounded=0;exitX=0.75;exitY=1;exitDx=0;exitDy=0;entryX=0.5;entryY=0;entryDx=0;entryDy=0;" parent="1" source="fA1U0WhDbmL-caPnjO-2-62" target="fA1U0WhDbmL-caPnjO-2-142" edge="1">
          <mxGeometry width="50" height="50" relative="1" as="geometry">
            <mxPoint x="672" y="672" as="sourcePoint" />
            <mxPoint x="785" y="712" as="targetPoint" />
          </mxGeometry>
        </mxCell>
        <mxCell id="fA1U0WhDbmL-caPnjO-2-144" value="" style="endArrow=classic;html=1;rounded=0;exitX=1;exitY=1;exitDx=0;exitDy=0;entryX=0;entryY=0;entryDx=0;entryDy=0;" parent="1" source="fA1U0WhDbmL-caPnjO-2-142" target="fA1U0WhDbmL-caPnjO-2-141" edge="1">
          <mxGeometry width="50" height="50" relative="1" as="geometry">
            <mxPoint x="809" y="782" as="sourcePoint" />
            <mxPoint x="868" y="863" as="targetPoint" />
          </mxGeometry>
        </mxCell>
        <mxCell id="fA1U0WhDbmL-caPnjO-2-145" value="ACTIVITY LOG" style="swimlane;childLayout=stackLayout;horizontal=1;startSize=50;horizontalStack=0;rounded=1;fontSize=14;fontStyle=0;strokeWidth=2;resizeParent=0;resizeLast=1;shadow=0;dashed=0;align=center;arcSize=4;whiteSpace=wrap;html=1;fillColor=#d5e8d4;strokeColor=#82b366;" parent="1" vertex="1">
          <mxGeometry x="603" y="893" width="156" height="148" as="geometry" />
        </mxCell>
        <mxCell id="fA1U0WhDbmL-caPnjO-2-146" value="1. log_id (PK)&lt;div&gt;2. user_id (FK)&lt;/div&gt;&lt;div&gt;3. action_type&lt;/div&gt;&lt;div&gt;4. description&lt;/div&gt;&lt;div&gt;5. status&lt;/div&gt;&lt;div&gt;6. created_at&lt;/div&gt;" style="align=left;strokeColor=none;fillColor=none;spacingLeft=4;spacingRight=4;fontSize=12;verticalAlign=top;resizable=0;rotatable=0;part=1;html=1;whiteSpace=wrap;" parent="fA1U0WhDbmL-caPnjO-2-145" vertex="1">
          <mxGeometry y="50" width="156" height="98" as="geometry" />
        </mxCell>
        <mxCell id="fA1U0WhDbmL-caPnjO-2-147" value="&lt;span style=&quot;font-size: 11px;&quot;&gt;ВИКОНУЄ&lt;/span&gt;&lt;div&gt;&lt;span style=&quot;font-size: 11px;&quot;&gt;ДІЮ&lt;/span&gt;&lt;/div&gt;" style="shape=rhombus;perimeter=rhombusPerimeter;whiteSpace=wrap;html=1;align=center;fillColor=#dae8fc;strokeColor=#6c8ebf;" parent="1" vertex="1">
          <mxGeometry x="550" y="778" width="120" height="60" as="geometry" />
        </mxCell>
        <mxCell id="fA1U0WhDbmL-caPnjO-2-148" value="" style="endArrow=classic;html=1;rounded=0;exitX=0.449;exitY=0.995;exitDx=0;exitDy=0;entryX=0.5;entryY=0;entryDx=0;entryDy=0;exitPerimeter=0;" parent="1" source="fA1U0WhDbmL-caPnjO-2-63" target="fA1U0WhDbmL-caPnjO-2-147" edge="1">
          <mxGeometry width="50" height="50" relative="1" as="geometry">
            <mxPoint x="597" y="661" as="sourcePoint" />
            <mxPoint x="656" y="742" as="targetPoint" />
          </mxGeometry>
        </mxCell>
        <mxCell id="fA1U0WhDbmL-caPnjO-2-151" value="" style="endArrow=classic;html=1;rounded=0;exitX=1;exitY=1;exitDx=0;exitDy=0;entryX=0.419;entryY=0.009;entryDx=0;entryDy=0;entryPerimeter=0;" parent="1" source="fA1U0WhDbmL-caPnjO-2-147" target="fA1U0WhDbmL-caPnjO-2-145" edge="1">
          <mxGeometry width="50" height="50" relative="1" as="geometry">
            <mxPoint x="659" y="781" as="sourcePoint" />
            <mxPoint x="654" y="936" as="targetPoint" />
          </mxGeometry>
        </mxCell>
        <mxCell id="M2zhSVOU4e_rLa_sU1ql-1" value="&lt;font style=&quot;font-size: 16px; color: rgb(255, 0, 128);&quot;&gt;1&lt;/font&gt;" style="text;html=1;align=center;verticalAlign=middle;resizable=0;points=[];autosize=1;strokeColor=none;fillColor=none;" vertex="1" parent="1">
          <mxGeometry x="611" y="640" width="28" height="32" as="geometry" />
        </mxCell>
        <mxCell id="M2zhSVOU4e_rLa_sU1ql-2" value="&lt;font color=&quot;#ff0080&quot;&gt;&lt;span style=&quot;font-size: 16px;&quot;&gt;N&lt;/span&gt;&lt;/font&gt;" style="text;html=1;align=center;verticalAlign=middle;resizable=0;points=[];autosize=1;strokeColor=none;fillColor=none;" vertex="1" parent="1">
          <mxGeometry x="656" y="858" width="31" height="32" as="geometry" />
        </mxCell>
        <mxCell id="M2zhSVOU4e_rLa_sU1ql-3" value="&lt;font color=&quot;#ff0080&quot;&gt;&lt;span style=&quot;font-size: 16px;&quot;&gt;N&lt;/span&gt;&lt;/font&gt;" style="text;html=1;align=center;verticalAlign=middle;resizable=0;points=[];autosize=1;strokeColor=none;fillColor=none;" vertex="1" parent="1">
          <mxGeometry x="803" y="793" width="31" height="32" as="geometry" />
        </mxCell>
        <mxCell id="M2zhSVOU4e_rLa_sU1ql-4" value="&lt;font style=&quot;font-size: 16px; color: rgb(255, 0, 128);&quot;&gt;1&lt;/font&gt;" style="text;html=1;align=center;verticalAlign=middle;resizable=0;points=[];autosize=1;strokeColor=none;fillColor=none;" vertex="1" parent="1">
          <mxGeometry x="686" y="631" width="28" height="32" as="geometry" />
        </mxCell>
      </root>
    </mxGraphModel>
  </diagram>
</mxfile>
